# xmcd CD database file
#
# Track frame offsets:
#	150
#	19500
#	28866
#	42865
#	57675
#	68830
#	80238
#	94064
#	110191
#	135057
#	151337
#	163695
#	179970
#	192008
#	202751
#	235105
#	253336
#
# Disc length: 3575 seconds
#
# Revision: 2
# Processed by: cddbd v1.5.2PL0 Copyright (c) Steve Scherf et al.
# Submitted via: CDex 1.50Beta7
#
DISCID=ec0df511
DTITLE=Rozni Artysci - gentleman and the city 2
DYEAR=2015
DGENRE=Jazz
TTITLE0=LOUIS ARMSTRONG - Stormy Weather
TTITLE1=FRANKIE AVALON - Love Lettters In The Sand
TTITLE2=CHARLES AZNAVOUR - Ca
TTITLE3=B. B. KING - The Woman I Love
TTITLE4=FRANKIE LAINE - High Noon
TTITLE5=MOCHEL LEGRAND - Milord
TTITLE6=GILBERD BECAUD - Adieu Bonjour
TTITLE7=DXTER GORDON - Tenderly
TTITLE8=KOLEMAN HAWKINS - Trouble Is A Man
TTITLE9=TED HEATH and AND HIS MUSIC - Take The "A" Train
TTITLE10=JOHN LEEHOOKER - I'm In The Mood
TTITLE11=CHET BAKER - When I Fall In Love
TTITLE12=RAY PRICE - Rock Of Ages
TTITLE13=DEAN MARTIN - Someday You'll Want Me To Want You
TTITLE14=HERBIE HANCOOK - Watrmelon Man
TTITLE15=BENNY GOODMAN - Sixteen Man
TTITLE16=RAY PRICE - Softly And Tederly
EXTD=YEAR: 2015
EXTT0=
EXTT1=
EXTT2=
EXTT3=
EXTT4=
EXTT5=
EXTT6=
EXTT7=
EXTT8=
EXTT9=
EXTT10=
EXTT11=
EXTT12=
EXTT13=
EXTT14=
EXTT15=
EXTT16=
PLAYORDER=
